<svg  version="1.1" xmlns="http://www.w3.org/2000/svg" xmlns:xlink="http://www.w3.org/1999/xlink">
<defs>
<symbol id="icon-addToBasket" viewBox="0 0 16 16">
<path fill="currentColor" d="M4.98 4a.5.5 0 0 0-.39.188L1.54 8H6a.5.5 0 0 1 .5.5 1.5 1.5 0 1 0 3 0A.5.5 0 0 1 10 8h4.46l-3.05-3.812A.5.5 0 0 0 11.02 4H4.98zm9.954 5H10.45a2.5 2.5 0 0 1-4.9 0H1.066l.32 2.562a.5.5 0 0 0 .497.438h12.234a.5.5 0 0 0 .496-.438L14.933 9zM3.809 3.563A1.5 1.5 0 0 1 4.981 3h6.038a1.5 1.5 0 0 1 1.172.563l3.7 4.625a.5.5 0 0 1 .105.374l-.39 3.124A1.5 1.5 0 0 1 14.117 13H1.883a1.5 1.5 0 0 1-1.489-1.314l-.39-3.124a.5.5 0 0 1 .106-.374l3.7-4.625z"/>
</symbol>
<symbol id="icon-addToBasket-check" viewBox="0 0 16 16">
<path fill="currentColor" d="M4.98 4a.5.5 0 0 0-.39.188L1.54 8H6a.5.5 0 0 1 .5.5 1.5 1.5 0 1 0 3 0A.5.5 0 0 1 10 8h4.46l-3.05-3.812A.5.5 0 0 0 11.02 4H4.98zm9.954 5H10.45a2.5 2.5 0 0 1-4.9 0H1.066l.32 2.562a.5.5 0 0 0 .497.438h12.234a.5.5 0 0 0 .496-.438L14.933 9zM3.809 3.563A1.5 1.5 0 0 1 4.981 3h6.038a1.5 1.5 0 0 1 1.172.563l3.7 4.625a.5.5 0 0 1 .105.374l-.39 3.124A1.5 1.5 0 0 1 14.117 13H1.883a1.5 1.5 0 0 1-1.489-1.314l-.39-3.124a.5.5 0 0 1 .106-.374l3.7-4.625z"/>
<path fill="currentColor" d="m 11.274932,2.0462333 a 0.75,0.75 0 0 1 1.07,1.0499999 l -3.9899993,4.99 a 0.75,0.75 0 0 1 -1.08,0.02 l -2.646,-2.646 a 0.75,0.75 0 1 1 1.06,-1.06 l 2.094,2.093 3.4729993,-4.4249999 a 0.267,0.267 0 0 1 0.02,-0.022 z"/>
</symbol>
<symbol id="icon-delete" viewBox="0 0 16 16">
<path fill="currentColor" d="M5.5 5.5A.5.5 0 0 1 6 6v6a.5.5 0 0 1-1 0V6a.5.5 0 0 1 .5-.5zm2.5 0a.5.5 0 0 1 .5.5v6a.5.5 0 0 1-1 0V6a.5.5 0 0 1 .5-.5zm3 .5a.5.5 0 0 0-1 0v6a.5.5 0 0 0 1 0V6z"/>
<path fill-rule="evenodd" d="M14.5 3a1 1 0 0 1-1 1H13v9a2 2 0 0 1-2 2H5a2 2 0 0 1-2-2V4h-.5a1 1 0 0 1-1-1V2a1 1 0 0 1 1-1H6a1 1 0 0 1 1-1h2a1 1 0 0 1 1 1h3.5a1 1 0 0 1 1 1v1zM4.118 4 4 4.059V13a1 1 0 0 0 1 1h6a1 1 0 0 0 1-1V4.059L11.882 4H4.118zM2.5 3V2h11v1h-11z"/>
</symbol>
<symbol id="icon-info-circle" viewBox="0 0 16 16">
    <path fill="currentColor" d="M8 16A8 8 0 1 0 8 0a8 8 0 0 0 0 16zm.93-9.412-1 4.705c-.07.34.029.533.304.533.194 0 .487-.07.686-.246l-.088.416c-.287.346-.92.598-1.465.598-.703 0-1.002-.422-.808-1.319l.738-3.468c.064-.293.006-.399-.287-.47l-.451-.081.082-.381 2.29-.287zM8 5.5a1 1 0 1 1 0-2 1 1 0 0 1 0 2z"/>
</symbol>
<symbol id="icon-plus-square" viewBox="0 0 16 16">
    <path fill="currentColor" d="M14 1a1 1 0 0 1 1 1v12a1 1 0 0 1-1 1H2a1 1 0 0 1-1-1V2a1 1 0 0 1 1-1h12zM2 0a2 2 0 0 0-2 2v12a2 2 0 0 0 2 2h12a2 2 0 0 0 2-2V2a2 2 0 0 0-2-2H2z"/>
    <path fill="currentColor" d="M8 4a.5.5 0 0 1 .5.5v3h3a.5.5 0 0 1 0 1h-3v3a.5.5 0 0 1-1 0v-3h-3a.5.5 0 0 1 0-1h3v-3A.5.5 0 0 1 8 4z"/>
</symbol>
</defs>
</svg>
